<?xml version="1.0" encoding="UTF-8"?>
<svg version="1.1" xmlns="http://www.w3.org/2000/svg" width="1920" height="768">
<path d="M0 0 C32.67 0 65.34 0 99 0 C99.33 78.54 99.66 157.08 100 238 C104.455 232.555 104.455 232.555 109 227 C146.75640226 186.1403318 205.29577437 171.5078639 259 169 C311.95258121 167.26568015 367.40554327 177.04724478 411 209 C412.5778125 210.15242188 412.5778125 210.15242188 414.1875 211.328125 C421.35850378 216.66209601 428.06163188 222.41427816 434.52050781 228.58789062 C435.5016484 229.5243456 436.48795247 230.45542231 437.47949219 231.38085938 C477.81100562 269.08032282 498.28342011 325.74546839 501 380 C501.12889681 385.22972318 501.14427019 390.45657646 501.125 395.6875 C501.12411377 396.38367432 501.12322754 397.07984863 501.12231445 397.79711914 C501.1062586 408.55577506 500.8344858 419.27089685 500 430 C500.58394531 428.81857422 500.58394531 428.81857422 501.1796875 427.61328125 C511.59369997 407.33715097 526.6958755 391.91893586 546 380 C546.6919043 379.57090332 547.38380859 379.14180664 548.09667969 378.69970703 C579.32222085 359.65429036 615.98476458 351.76866618 651.8125 346.8125 C652.91166748 346.6575708 654.01083496 346.5026416 655.14331055 346.34301758 C679.69805252 343.14052833 704.22263364 342.70992993 728.9361105 342.79721212 C733.177391 342.80996682 737.41867642 342.81090898 741.65997314 342.81326294 C749.64182681 342.81940676 757.62362376 342.83571822 765.60545278 342.85596192 C774.71353865 342.87854604 783.82162767 342.88937013 792.92973471 342.89935279 C811.61985494 342.92009339 830.30992287 342.95512651 849 343 C848.9550597 338.45018177 848.88444874 333.90165012 848.79248047 329.35253906 C848.76467933 327.81293113 848.74326739 326.27319129 848.72900391 324.73339844 C848.59365248 310.92755338 847.00318554 297.23088677 840.4375 284.8125 C840.10089355 284.16087891 839.76428711 283.50925781 839.41748047 282.83789062 C827.70707613 261.19761127 805.69718194 247.81731617 782.73828125 240.625 C744.12556692 229.27321127 696.63658172 229.67440724 660.51953125 248.84765625 C653.25227443 253.13303747 646.9620957 258.0379043 641 264 C640.43796875 264.56203125 639.8759375 265.1240625 639.296875 265.703125 C631.6810675 273.96026366 627.43083779 283.5034062 624.7265625 294.26171875 C624 297 624 297 623 298 C619.83387337 298.09536242 616.68959372 298.12550636 613.52319336 298.11352539 C612.03067802 298.11374443 612.03067802 298.11374443 610.50801086 298.1139679 C607.20193338 298.11326831 603.89591146 298.10547379 600.58984375 298.09765625 C598.30440807 298.09579223 596.01897199 298.09436825 593.73353577 298.09336853 C587.70501613 298.08954207 581.67652041 298.0797107 575.64801025 298.06866455 C569.50167159 298.05845317 563.35532907 298.0538715 557.20898438 298.04882812 C545.13931238 298.03808854 533.06965818 298.0210106 521 298 C520.78545596 268.85212134 536.13361706 243.28025328 555.453125 222.55078125 C591.99693458 185.95092289 647.14662408 173.06639922 697 169 C698.06976074 168.91242432 699.13952148 168.82484863 700.24169922 168.73461914 C711.43405553 167.92547227 722.6050052 167.81383362 733.82373047 167.81469727 C736.96726278 167.81252265 740.11043611 167.79432719 743.25390625 167.77539062 C761.9908873 167.72277125 780.67413516 168.8165225 799.1875 171.8125 C800.26153076 171.98354248 801.33556152 172.15458496 802.44213867 172.33081055 C845.6772059 179.46042251 882.83127285 195.70847226 914 227 C911.49324124 222.2484851 908.98464358 217.49794743 906.47436523 212.74829102 C905.62132445 211.13364713 904.76877954 209.51874116 903.91674805 207.90356445 C902.68930436 205.57693886 901.46005821 203.25127339 900.23046875 200.92578125 C899.66310249 199.84892815 899.66310249 199.84892815 899.08427429 198.75032043 C897.54045028 195.83399257 895.99256369 192.98816591 894.2355957 190.19213867 C893 188 893 188 893 185 C930.95 185 968.9 185 1008 185 C1056.73429648 282.46859296 1105.46859296 379.93718592 1171 511 C1178.24440858 496.53472763 1185.48641428 482.0682551 1192.72569752 467.60041714 C1196.08840855 460.8801128 1199.45185332 454.16017774 1202.81713867 447.44116211 C1205.75635682 441.57281298 1208.69408321 435.70371971 1211.63014811 429.83379227 C1213.17932817 426.7367159 1214.72916572 423.63997325 1216.28080177 420.54412651 C1221.9440339 409.2417034 1227.586719 397.93584133 1232.99633789 386.50952148 C1241.40579382 368.78330939 1250.28540599 351.28350772 1259.06373644 333.73820162 C1261.66694045 328.53435478 1264.26816598 323.32951903 1266.86972046 318.12484741 C1271.22372394 309.41503311 1275.57939274 300.70605317 1279.93603516 291.99755859 C1284.97546576 281.9241743 1290.01197305 271.84933237 1295.04702246 261.77375758 C1299.3846078 253.09405866 1303.72374155 244.41513517 1308.06418741 235.73686635 C1310.65097762 230.56484557 1313.23722509 225.39255531 1315.82207108 220.21956253 C1318.24170658 215.37741581 1320.66327709 210.53624184 1323.08638382 205.6958313 C1323.97680411 203.91631835 1324.86653584 202.13646069 1325.75554657 200.35624313 C1326.96357942 197.93746702 1328.1740409 195.51992235 1329.38516235 193.10269165 C1329.74049533 192.38979497 1330.09582832 191.67689828 1330.46192896 190.94239867 C1332.88584759 186.11415241 1332.88584759 186.11415241 1334 185 C1335.3534059 184.90468837 1336.71173984 184.8781128 1338.0684967 184.87974548 C1338.94494339 184.87837082 1339.82139008 184.87699615 1340.72439575 184.87557983 C1342.17771805 184.88097275 1342.17771805 184.88097275 1343.66040039 184.88647461 C1344.67491776 184.88632858 1345.68943512 184.88618256 1346.73469543 184.8860321 C1350.10570373 184.88673171 1353.47665754 184.89452632 1356.84765625 184.90234375 C1359.17793243 184.90420776 1361.508209 184.90563174 1363.83848572 184.90663147 C1369.98537265 184.91045798 1376.13223613 184.9202894 1382.27911377 184.93133545 C1388.54609866 184.94154671 1394.81308732 184.94612848 1401.08007812 184.95117188 C1413.38672908 184.96191155 1425.69336259 184.97898956 1438 185 C1436.78189935 188.72248132 1435.509685 192.2297954 1433.75 195.73046875 C1433.31220215 196.60477539 1432.8744043 197.47908203 1432.42333984 198.37988281 C1431.9536377 199.30639648 1431.48393555 200.23291016 1431 201.1875 C1430.50580566 202.16944336 1430.01161133 203.15138672 1429.50244141 204.16308594 C1426.14534873 210.80851804 1422.69204157 217.39788741 1419.19335938 223.96948242 C1414.81956006 232.24133743 1410.66913111 240.62383762 1406.5 249 C1401.70643551 258.63056465 1396.88743912 268.23434735 1391.81640625 277.72265625 C1387.73332951 285.40925373 1383.87716625 293.20826073 1380 301 C1375.76898678 309.50284711 1371.53954378 317.9980923 1367.0625 326.375 C1362.36692822 335.16289301 1357.93941753 344.08099678 1353.5 353 C1348.72971328 362.58370745 1343.9349817 372.14089387 1338.88671875 381.58203125 C1334.60506982 389.64413274 1330.56737428 397.82848223 1326.5 406 C1321.72970912 415.58370534 1316.93498175 425.14089377 1311.88671875 434.58203125 C1307.60506982 442.64413274 1303.56737428 450.82848223 1299.5 459 C1294.72970912 468.58370534 1289.93498175 478.14089377 1284.88671875 487.58203125 C1280.20764381 496.39246333 1275.81161499 505.3468063 1271.36672974 514.27679443 C1266.94946338 523.14771379 1262.48778479 531.98213264 1257.81640625 540.72265625 C1253.73332951 548.40925373 1249.87716625 556.20826073 1246 564 C1241.76898678 572.50284711 1237.53954378 580.9980923 1233.0625 589.375 C1228.36692822 598.16289301 1223.93941753 607.08099678 1219.5 616 C1214.72971328 625.58370745 1209.9349817 635.14089387 1204.88671875 644.58203125 C1200.60506982 652.64413274 1196.56737428 660.82848223 1192.5 669 C1187.72970912 678.58370534 1182.93498175 688.14089377 1177.88671875 697.58203125 C1173.21151683 706.38517065 1168.8188561 715.33196212 1164.37780762 724.25463867 C1159.39770563 734.25634804 1154.34704362 744.2089379 1149.078125 754.0625 C1146.64602961 758.67068074 1144.33025397 763.33949207 1142 768 C1105.7 768 1069.4 768 1032 768 C1042.18070652 746.50739734 1042.18070652 746.50739734 1046.5625 738.75 C1051.55521162 729.75524621 1056.30903288 720.65409912 1061 711.5 C1065.53938628 702.64685153 1070.12339487 693.83306275 1074.9375 685.125 C1080.36598777 675.30273622 1085.49119319 665.33495123 1090.60241699 655.34539795 C1095.60506019 645.57221592 1100.6943107 635.86216343 1106.0703125 626.28710938 C1106.94359109 624.71805838 1107.79576806 623.13706453 1108.62573242 621.54467773 C1110 619 1110 619 1111.9152832 616.03540039 C1114.71417616 611.23044495 1116.48337293 607.9735599 1115.12231445 602.41650391 C1113.39549246 598.37358205 1111.108037 594.67603681 1108.8125 590.9375 C1108.0000462 589.53096397 1107.1928255 588.12139335 1106.390625 586.70898438 C1104.74951512 583.83131273 1103.08542181 580.96915156 1101.40087891 578.11669922 C1097.91135959 572.1783762 1094.71627469 566.0899071 1091.5 560 C1090.27218482 557.70760896 1089.04300181 555.41595004 1087.8125 553.125 C1083.32458242 544.74755385 1078.87044605 536.352239 1074.41598511 527.95697021 C1069.48672021 518.66777378 1064.53608481 509.39056486 1059.5625 500.125 C1053.61526524 489.04382754 1047.72288091 477.93439729 1041.84552002 466.81604004 C1036.13629601 456.01725871 1030.39044902 445.23916627 1024.61328125 434.4765625 C1019.5203228 424.98415484 1014.46467016 415.4722818 1009.41571045 405.9564209 C1004.4865349 396.6674089 999.53598793 387.39038437 994.5625 378.125 C989.0046713 367.76938755 983.49282527 357.39021287 978 347 C966.14852881 324.58588348 954.18830176 302.23322673 942 280 C942.21934204 281.10287354 942.21934204 281.10287354 942.44311523 282.22802734 C943.11275181 285.60941314 943.77516721 288.99217631 944.4375 292.375 C944.66759766 293.53128906 944.89769531 294.68757813 945.13476562 295.87890625 C945.46831055 297.59013672 945.46831055 297.59013672 945.80859375 299.3359375 C946.01282959 300.37282715 946.21706543 301.4097168 946.42749023 302.47802734 C947.70129262 310.31422061 948.14773402 318.07130701 948.13803101 326.00192261 C948.14085229 326.95791355 948.14367357 327.9139045 948.14658034 328.89886487 C948.154859 332.07695349 948.15625895 335.25500697 948.15771484 338.43310547 C948.16238917 340.72456458 948.16753375 343.01602277 948.17311096 345.30747986 C948.18436721 350.23836047 948.19281443 355.16923512 948.19923019 360.10012436 C948.20999213 367.95358207 948.23026885 375.80699789 948.25234985 383.66043091 C948.25983001 386.36284433 948.26724416 389.06525793 948.27463722 391.76767159 C948.27648779 392.44323013 948.27833835 393.11878868 948.280245 393.8148187 C948.30115262 401.49796102 948.31997639 409.18110797 948.33789062 416.86425781 C948.3403479 417.91642232 948.3403479 417.91642232 948.34285481 418.98984267 C948.36888293 430.24139273 948.3876656 441.49294598 948.40448253 452.74451302 C948.42216145 464.38876512 948.4512844 476.03295632 948.4893719 487.67715943 C948.51026791 494.17660622 948.52584549 500.6759884 948.52817917 507.17547226 C948.54367846 541.25403195 949.7681132 574.98058962 952 609 C921.97 609 891.94 609 861 609 C860.11899752 606.35699256 859.83324356 604.62776671 859.71875 601.90258789 C859.68201172 601.08065445 859.64527344 600.25872101 859.60742188 599.41188049 C859.57197266 598.52443649 859.53652344 597.63699249 859.5 596.72265625 C859.45939453 595.80093124 859.41878906 594.87920624 859.37695312 593.92955017 C859.24723121 590.97402652 859.12320854 588.01830179 859 585.0625 C858.83632034 581.19908464 858.66986534 577.33580465 858.5 573.47265625 C858.4594751 572.54981842 858.4189502 571.62698059 858.37719727 570.67617798 C858.07723477 564.09979734 857.65046673 557.55224129 857 551 C856.51982422 551.63397705 856.03964844 552.2679541 855.54492188 552.92114258 C822.25152726 596.47562147 767.56605383 616.17710442 715.01464844 623.51123047 C703.07416835 625.0296963 691.01962233 625.55242353 679 626 C677.70449219 626.05196533 677.70449219 626.05196533 676.3828125 626.10498047 C626.50211416 627.86611916 571.00520094 616.33884389 532.75 582.5 C531.15787548 581.00933439 529.57446959 579.50930115 528 578 C527.18015625 577.24332031 526.3603125 576.48664062 525.515625 575.70703125 C498.404983 549.90140463 489.9638946 515.12683431 489.04418945 478.93334961 C489.02231567 477.97634155 489.02231567 477.97634155 489 477 C488.69932617 477.82854492 488.69932617 477.82854492 488.39257812 478.67382812 C483.94371372 490.85019851 479.16736719 502.59188975 473 514 C472.52095215 514.8979126 472.52095215 514.8979126 472.03222656 515.81396484 C454.96535153 547.59993666 429.22575715 572.74507322 399 592 C398.07445312 592.60328125 397.14890625 593.2065625 396.1953125 593.828125 C375.69211714 606.54604908 351.77643361 614.36856375 328.3125 619.3125 C326.58652588 619.67649902 326.58652588 619.67649902 324.82568359 620.04785156 C307.53414809 623.49591689 290.53651441 624.37686513 272.9375 624.3125 C271.90230225 624.31067719 270.86710449 624.30885437 269.80053711 624.30697632 C254.34968805 624.26119404 239.22888258 623.85007504 224 621 C223.03884277 620.82307617 222.07768555 620.64615234 221.08740234 620.46386719 C175.08999192 611.74190857 128.72124302 591.56940478 99 554 C98.9498877 554.99104736 98.89977539 555.98209473 98.84814453 557.00317383 C98.65570673 560.7814463 98.45642646 564.55933535 98.25537109 568.3371582 C98.17025353 569.95327616 98.08684315 571.56948518 98.00537109 573.18579102 C97.88600544 575.5473152 97.75989963 577.90841127 97.6328125 580.26953125 C97.59938751 580.95892288 97.56596252 581.64831451 97.53152466 582.3585968 C97.03627501 591.28903199 95.93965875 600.0732419 95 609 C62.99 609 30.98 609 -2 609 C-1.67 597.45 -1.34 585.9 -1 574 C-0.67 523.84 -0.34 473.68 0 422 C-126.06 422 -252.12 422 -382 422 C-377.48730196 459.60581697 -370.21679804 488.24103737 -344 516 C-343.26394531 516.81210937 -342.52789062 517.62421875 -341.76953125 518.4609375 C-318.64081756 543.02308906 -281.72817921 556.97811928 -248.43457031 558.12255859 C-206.52508224 559.08579474 -168.5731712 552.31998642 -136 524 C-135.37609375 523.46117187 -134.7521875 522.92234375 -134.109375 522.3671875 C-123.88717847 512.86150007 -115.4067073 499.2201219 -111 486 C-77.34 486 -43.68 486 -9 486 C-11.35624043 500.13744257 -11.35624043 500.13744257 -13.625 506.75 C-13.88369873 507.51022461 -14.14239746 508.27044922 -14.40893555 509.05371094 C-27.83528126 547.13915906 -57.04895473 576.04143487 -92 595 C-92.63502441 595.34627441 -93.27004883 595.69254883 -93.92431641 596.04931641 C-123.74800462 611.96614818 -158.67035681 618.88694849 -192 622 C-192.9904834 622.0942627 -193.9809668 622.18852539 -195.00146484 622.28564453 C-206.23700351 623.22403779 -217.48179353 623.2425096 -228.75 623.25 C-229.80469482 623.25100708 -230.85938965 623.25201416 -231.94604492 623.25305176 C-300.07483624 623.20930357 -371.88487447 610.42068481 -423 562 C-423.94488281 561.11957031 -424.88976562 560.23914063 -425.86328125 559.33203125 C-451.83308897 534.63949675 -466.65452445 501.34528809 -475 467 C-475.20850586 466.16500977 -475.41701172 465.33001953 -475.63183594 464.46972656 C-491.12967234 401.09324548 -484.50504377 322.45979905 -450.76464844 266.01635742 C-447.14955199 260.10516769 -443.26245583 254.46577338 -439 249 C-438.36191406 248.15824219 -437.72382813 247.31648437 -437.06640625 246.44921875 C-399.77981231 198.87180682 -341.4168398 177.40686631 -283.0625 170.3125 C-267.01690501 168.38307347 -251.14648071 167.75969433 -235 167.75 C-233.9855481 167.74932526 -232.97109619 167.74865051 -231.92590332 167.74795532 C-166.08326046 167.8172075 -101.29254572 184.26096816 -53.34375 231.5625 C-48.86822691 236.08971644 -44.93981391 241.00558944 -41 246 C-40.25492187 246.93972656 -39.50984375 247.87945312 -38.7421875 248.84765625 C-18.35402282 275.2386081 -8.36510729 304.59352794 -1 337 C-0.67 225.79 -0.34 114.58 0 0 Z M-345.10009766 274.64624023 C-368.88619901 297.90654356 -376.99865449 323.98519937 -380 357 C-287.93 357 -195.86 357 -101 357 C-101 323.26570995 -112.17400625 293.97624184 -135.6875 269.8125 C-190.44126328 215.42425911 -291.48050273 223.66295254 -345.10009766 274.64624023 Z M139.09375 282.08984375 C108.71497416 316.01773944 97.0020278 363.35780867 99 408 C102.23229503 451.06359728 118.34852664 492.78624119 150.61328125 522.3984375 C184.08369055 550.66233869 224.89887252 559.77159712 267.92480469 556.79785156 C273.05161225 556.26148993 278.00876118 555.27229916 283 554 C283.78165527 553.80664062 284.56331055 553.61328125 285.36865234 553.4140625 C322.55454736 543.9514825 354.62927056 520.55280486 374.625 487.75 C399.86008569 444.96415529 404.85244333 393.58724165 392.74169922 345.77392578 C387.49189717 326.13987349 378.96594864 306.79311037 366 291 C365.59845703 290.49597656 365.19691406 289.99195313 364.78320312 289.47265625 C340.84614404 259.45234455 306.72196435 241.45395201 268.61962891 237.08813477 C219.92875245 231.96492885 172.76106358 245.75070317 139.09375 282.08984375 Z M940 276 C941 278 941 278 941 278 Z M786.5625 406.375 C785.849408 406.38560707 785.13631599 406.39621414 784.40161514 406.40714264 C689.33103569 404.35673241 689.33103569 404.35673241 606.2890625 442.55859375 C594.33150844 455.31195772 591.47112729 470.88634898 591.7265625 487.71484375 C592.38493138 505.78087705 600.34669903 522.20104952 613 535 C639.02457778 558.35918717 675.44341213 562.16940335 708.9375 560.8125 C749.49328063 558.60770957 789.40775925 545.91686412 818 516 C836.85392568 494.89194688 849.26785979 465.73079878 849.09765625 437.34765625 C849.0962413 436.44752304 849.09482635 435.54738983 849.09336853 434.61997986 C849.0878066 431.76745163 849.07526127 428.91500419 849.0625 426.0625 C849.05748008 424.11914176 849.05291803 422.17578229 849.04882812 420.23242188 C849.03784966 415.4882505 849.02061153 410.74413891 849 406 C828.18442614 405.94467904 807.37592601 406.06295148 786.5625 406.375 Z " fill="#0063D2" transform="translate(482,0)"/>
<path d="M0 0 C3.14353231 -0.00217462 6.28670564 -0.02037007 9.43017578 -0.03930664 C28.16715683 -0.09192601 46.85040469 1.00182524 65.36376953 3.99780273 C66.97481567 4.25436646 66.97481567 4.25436646 68.6184082 4.51611328 C111.85347543 11.64572524 149.00754238 27.893775 180.17626953 59.18530273 C177.66951077 54.43378783 175.16091311 49.68325016 172.65063477 44.93359375 C171.79759398 43.31894986 170.94504907 41.70404389 170.09301758 40.08886719 C168.8655739 37.7622416 167.63632774 35.43657612 166.40673828 33.11108398 C166.02849411 32.39318192 165.65024994 31.67527985 165.26054382 30.93562317 C163.71671982 28.0192953 162.16883322 25.17346864 160.41186523 22.37744141 C159.17626953 20.18530273 159.17626953 20.18530273 159.17626953 17.18530273 C197.12626953 17.18530273 235.07626953 17.18530273 274.17626953 17.18530273 C347.27771425 163.38819218 347.27771425 163.38819218 437.17626953 343.18530273 C444.42067811 328.72003037 451.66268381 314.25355784 458.90196705 299.78571987 C462.26467808 293.06541554 465.62812285 286.34548047 468.9934082 279.62646484 C471.93262636 273.75811571 474.87035274 267.88902244 477.80641764 262.019095 C479.35559771 258.92201864 480.90543525 255.82527599 482.4570713 252.72942924 C488.12030343 241.42700613 493.76298853 230.12114406 499.17260742 218.69482422 C507.58206335 200.96861213 516.46167553 183.46881046 525.24000597 165.92350435 C527.84320998 160.71965752 530.44443551 155.51482176 533.04598999 150.31015015 C537.39999347 141.60033584 541.75566227 132.89135591 546.11230469 124.18286133 C551.15173529 114.10947704 556.18824258 104.03463511 561.22329199 93.95906031 C565.56087733 85.2793614 569.90001109 76.60043791 574.24045694 67.92216909 C576.82724715 62.7501483 579.41349462 57.57785804 581.99834061 52.40486526 C584.41797611 47.56271854 586.83954662 42.72154457 589.26265335 37.88113403 C590.15307364 36.10162109 591.04280537 34.32176342 591.9318161 32.54154587 C593.13984895 30.12276975 594.35031043 27.70522509 595.56143188 25.28799438 C596.09443136 24.21864936 596.09443136 24.21864936 596.63819849 23.1277014 C599.06211712 18.29945514 599.06211712 18.29945514 600.17626953 17.18530273 C601.52967543 17.08999111 602.88800938 17.06341554 604.24476624 17.06504822 C605.12121292 17.06367355 605.99765961 17.06229889 606.90066528 17.06088257 C608.35398758 17.06627548 608.35398758 17.06627548 609.83666992 17.07177734 C611.35844597 17.0715583 611.35844597 17.0715583 612.91096497 17.07133484 C616.28197326 17.07203444 619.65292707 17.07982905 623.02392578 17.08764648 C625.35420196 17.0895105 627.68447854 17.09093448 630.01475525 17.0919342 C636.16164218 17.09576072 642.30850566 17.10559213 648.4553833 17.11663818 C654.72236819 17.12684945 660.98935685 17.13143121 667.25634766 17.13647461 C679.56299861 17.14721428 691.86963213 17.1642923 704.17626953 17.18530273 C702.95816888 20.90778405 701.68595453 24.41509814 699.92626953 27.91577148 C699.48847168 28.79007813 699.05067383 29.66438477 698.59960938 30.56518555 C698.12990723 31.49169922 697.66020508 32.41821289 697.17626953 33.37280273 C696.6820752 34.35474609 696.18788086 35.33668945 695.67871094 36.34838867 C692.32161826 42.99382077 688.86831111 49.58319014 685.36962891 56.15478516 C680.99582959 64.42664017 676.84540064 72.80914035 672.67626953 81.18530273 C667.88270504 90.81586738 663.06370865 100.41965009 657.99267578 109.90795898 C653.90959905 117.59455646 650.05343578 125.39356347 646.17626953 133.18530273 C641.94525631 141.68814984 637.71581331 150.18339504 633.23876953 158.56030273 C628.54319775 167.34819575 624.11568707 176.26629951 619.67626953 185.18530273 C614.90598281 194.76901018 610.11125123 204.32619661 605.06298828 213.76733398 C600.78133935 221.82943548 596.74364381 230.01378497 592.67626953 238.18530273 C587.90597866 247.76900808 583.11125129 257.32619651 578.06298828 266.76733398 C573.78133935 274.82943548 569.74364381 283.01378497 565.67626953 291.18530273 C560.90597866 300.76900808 556.11125129 310.32619651 551.06298828 319.76733398 C546.38391334 328.57776606 541.98788452 337.53210904 537.54299927 346.46209717 C533.12573291 355.33301652 528.66405432 364.16743537 523.99267578 372.90795898 C519.90959905 380.59455646 516.05343578 388.39356347 512.17626953 396.18530273 C507.94525631 404.68814984 503.71581331 413.18339504 499.23876953 421.56030273 C494.54319775 430.34819575 490.11568707 439.26629951 485.67626953 448.18530273 C480.90598281 457.76901018 476.11125123 467.32619661 471.06298828 476.76733398 C466.78133935 484.82943548 462.74364381 493.01378497 458.67626953 501.18530273 C453.90597866 510.76900808 449.11125129 520.32619651 444.06298828 529.76733398 C439.38778636 538.57047338 434.99512564 547.51726485 430.55407715 556.43994141 C425.57397516 566.44165078 420.52331315 576.39424063 415.25439453 586.24780273 C412.82229914 590.85598348 410.5065235 595.5247948 408.17626953 600.18530273 C371.87626953 600.18530273 335.57626953 600.18530273 298.17626953 600.18530273 C308.35697605 578.69270008 308.35697605 578.69270008 312.73876953 570.93530273 C317.73148115 561.94054895 322.48530241 552.83940186 327.17626953 543.68530273 C331.71565581 534.83215427 336.2996644 526.01836548 341.11376953 517.31030273 C346.5422573 507.48803895 351.66746272 497.52025396 356.77868652 487.53070068 C361.78132972 477.75751866 366.87058023 468.04746617 372.24658203 458.47241211 C373.11986062 456.90336111 373.97203759 455.32236726 374.80200195 453.72998047 C376.17626953 451.18530273 376.17626953 451.18530273 378.09155273 448.22070312 C380.89044569 443.41574768 382.65964246 440.15886263 381.29858398 434.60180664 C379.571762 430.55888479 377.28430653 426.86133954 374.98876953 423.12280273 C374.17631573 421.71626671 373.36909503 420.30669609 372.56689453 418.89428711 C370.92578465 416.01661546 369.26169134 413.15445429 367.57714844 410.30200195 C364.08762912 404.36367894 360.89254422 398.27520984 357.67626953 392.18530273 C356.44845435 389.8929117 355.21927134 387.60125278 353.98876953 385.31030273 C349.50085195 376.93285658 345.04671559 368.53754173 340.59225464 360.14227295 C335.66298974 350.85307651 330.71235435 341.57586759 325.73876953 332.31030273 C319.79153477 321.22913027 313.89915044 310.11970003 308.02178955 299.00134277 C302.31256554 288.20256144 296.56671855 277.424469 290.78955078 266.66186523 C285.69659233 257.16945757 280.64093969 247.65758454 275.59197998 238.14172363 C270.66280443 228.85271163 265.71225747 219.57568711 260.73876953 210.31030273 C255.18094083 199.95469028 249.6690948 189.5755156 244.17626953 179.18530273 C232.32479834 156.77118621 220.36457129 134.41852947 208.17626953 112.18530273 C208.32249756 112.92055176 208.46872559 113.65580078 208.61938477 114.41333008 C209.28902134 117.79471587 209.95143674 121.17747904 210.61376953 124.56030273 C210.95891602 126.29473633 210.95891602 126.29473633 211.31103516 128.06420898 C211.64458008 129.77543945 211.64458008 129.77543945 211.98486328 131.52124023 C212.18909912 132.55812988 212.39333496 133.59501953 212.60375977 134.66333008 C213.87756215 142.49952335 214.32400356 150.25660974 214.31430054 158.18722534 C214.31712182 159.14321629 214.3199431 160.09920723 214.32284987 161.0841676 C214.33112853 164.26225623 214.33252848 167.44030971 214.33398438 170.6184082 C214.3386587 172.90986731 214.34380328 175.2013255 214.34938049 177.49278259 C214.36063674 182.4236632 214.36908396 187.35453785 214.37549973 192.28542709 C214.38626166 200.13888481 214.40653838 207.99230062 214.42861938 215.84573364 C214.43609954 218.54814706 214.44351369 221.25056066 214.45090675 223.95297432 C214.45275732 224.62853287 214.45460789 225.30409142 214.45651453 226.00012144 C214.47742215 233.68326376 214.49624592 241.36641071 214.51416016 249.04956055 C214.51579834 249.75100355 214.51743652 250.45244655 214.51912434 251.1751454 C214.54515246 262.42669546 214.56393514 273.67824872 214.58075206 284.92981575 C214.59843098 296.57406786 214.62755394 308.21825906 214.66564143 319.86246216 C214.68653745 326.36190895 214.70211502 332.86129113 214.7044487 339.36077499 C214.71994799 373.43933469 215.94438273 407.16589236 218.17626953 441.18530273 C188.14626953 441.18530273 158.11626953 441.18530273 127.17626953 441.18530273 C126.29526705 438.5422953 126.00951309 436.81306944 125.89501953 434.08789062 C125.83991211 432.85499046 125.83991211 432.85499046 125.78369141 431.59718323 C125.74824219 430.70973923 125.71279297 429.82229523 125.67626953 428.90795898 C125.63566406 427.98623398 125.59505859 427.06450897 125.55322266 426.11485291 C125.42350074 423.15932926 125.29947807 420.20360453 125.17626953 417.24780273 C125.01258987 413.38438737 124.84613487 409.52110738 124.67626953 405.65795898 C124.63574463 404.73512115 124.59521973 403.81228333 124.5534668 402.86148071 C124.25350431 396.28510008 123.82673626 389.73754402 123.17626953 383.18530273 C122.45600586 384.13626831 122.45600586 384.13626831 121.72119141 385.10644531 C88.42779679 428.6609242 33.74232336 448.36240716 -18.80908203 455.6965332 C-30.74956212 457.21499904 -42.80410814 457.73772626 -54.82373047 458.18530273 C-55.68740234 458.21994629 -56.55107422 458.25458984 -57.44091797 458.2902832 C-107.32161631 460.05142189 -162.81852953 448.52414662 -201.07373047 414.68530273 C-202.66585499 413.19463713 -204.24926088 411.69460388 -205.82373047 410.18530273 C-206.64357422 409.42862305 -207.46341797 408.67194336 -208.30810547 407.89233398 C-225.00765501 391.99664475 -234.62707473 372.12855087 -240.82373047 350.18530273 C-241.11618652 349.16291504 -241.11618652 349.16291504 -241.41455078 348.11987305 C-247.14799101 326.84146484 -245.56918998 300.20320393 -239.82373047 279.18530273 C-239.64181152 278.49887695 -239.45989258 277.81245117 -239.27246094 277.10522461 C-231.61393025 249.09923037 -212.14077138 227.19936105 -187.82373047 212.18530273 C-187.13182617 211.75620605 -186.43992187 211.32710937 -185.72705078 210.88500977 C-154.50150962 191.83959309 -117.83896589 183.95396891 -82.01123047 178.99780273 C-80.91206299 178.84287354 -79.81289551 178.68794434 -78.68041992 178.52832031 C-54.12567795 175.32583107 -29.60109683 174.89523267 -4.88761997 174.98251486 C-0.64633947 174.99526955 3.59494595 174.99621171 7.83624268 174.99856567 C15.81809634 175.0047095 23.79989329 175.02102096 31.78172231 175.04126465 C40.88980819 175.06384878 49.9978972 175.07467286 59.10600424 175.08465552 C77.79612447 175.10539612 96.4861924 175.14042924 115.17626953 175.18530273 C115.13132923 170.63548451 115.06071827 166.08695285 114.96875 161.5378418 C114.94094886 159.99823386 114.91953692 158.45849403 114.90527344 156.91870117 C114.76992202 143.11285612 113.17945507 129.4161895 106.61376953 116.99780273 C106.27716309 116.34618164 105.94055664 115.69456055 105.59375 115.02319336 C93.88334566 93.382914 71.87345147 80.0026189 48.91455078 72.81030273 C10.30183645 61.45851401 -37.18714875 61.85970997 -73.30419922 81.03295898 C-80.57145604 85.3183402 -86.86163476 90.22320703 -92.82373047 96.18530273 C-93.38576172 96.74733398 -93.94779297 97.30936523 -94.52685547 97.88842773 C-102.14266297 106.14556639 -106.39289268 115.68870894 -109.09716797 126.44702148 C-109.82373047 129.18530273 -109.82373047 129.18530273 -110.82373047 130.18530273 C-113.9898571 130.28066515 -117.13413674 130.3108091 -120.30053711 130.29882812 C-121.79305244 130.29904716 -121.79305244 130.29904716 -123.3157196 130.29927063 C-126.62179709 130.29857105 -129.92781901 130.29077653 -133.23388672 130.28295898 C-135.5193224 130.28109497 -137.80475848 130.27967099 -140.0901947 130.27867126 C-146.11871434 130.27484481 -152.14721006 130.26501343 -158.17572021 130.25396729 C-164.32205888 130.24375591 -170.4684014 130.23917423 -176.61474609 130.23413086 C-188.68441809 130.22339128 -200.75407229 130.20631333 -212.82373047 130.18530273 C-213.03827451 101.03742407 -197.69011341 75.46555601 -178.37060547 54.73608398 C-141.82679589 18.13622562 -86.67710639 5.25170196 -36.82373047 1.18530273 C-35.75396973 1.09772705 -34.68420898 1.01015137 -33.58203125 0.91992188 C-22.38967493 0.110775 -11.21872527 -0.00086364 0 0 Z M206.17626953 108.18530273 C207.17626953 110.18530273 207.17626953 110.18530273 207.17626953 110.18530273 Z M52.73876953 238.56030273 C52.02567753 238.57090981 51.31258553 238.58151688 50.57788467 238.59244537 C-44.49269478 236.54203514 -44.49269478 236.54203514 -127.53466797 274.74389648 C-139.49222203 287.49726045 -142.35260318 303.07165171 -142.09716797 319.90014648 C-141.43879908 337.96617979 -133.47703144 354.38635226 -120.82373047 367.18530273 C-94.79915269 390.5444899 -58.38031834 394.35470608 -24.88623047 392.99780273 C15.66955016 390.7930123 55.58402878 378.10216685 84.17626953 348.18530273 C103.03019521 327.07724961 115.44412932 297.91610152 115.27392578 269.53295898 C115.27251083 268.63282578 115.27109589 267.73269257 115.26963806 266.80528259 C115.26407613 263.95275436 115.2515308 261.10030692 115.23876953 258.24780273 C115.23374961 256.3044445 115.22918756 254.36108502 115.22509766 252.41772461 C115.21411919 247.67355323 115.19688106 242.92944164 115.17626953 238.18530273 C94.36069567 238.12998178 73.55219554 238.24825421 52.73876953 238.56030273 Z " fill="#F4AF02" transform="translate(1215.82373046875,167.814697265625)"/>
<path d="M0 0 C1.0144519 -0.00067474 2.02890381 -0.00134949 3.07409668 -0.00204468 C68.91673954 0.0672075 133.70745428 16.51096816 181.65625 63.8125 C186.13177309 68.33971644 190.06018609 73.25558944 194 78.25 C194.74507813 79.18972656 195.49015625 80.12945312 196.2578125 81.09765625 C213.92646328 103.96840107 225.24434937 130.46785168 231.8125 158.5 C232.00755127 159.32556396 232.20260254 160.15112793 232.40356445 161.00170898 C239.13114144 191.55921241 236 223.33672558 236 254.25 C109.61 254.25 -16.78 254.25 -147 254.25 C-142.48730196 291.85581697 -135.21679804 320.49103737 -109 348.25 C-108.26394531 349.06210937 -107.52789062 349.87421875 -106.76953125 350.7109375 C-83.64081756 375.27308906 -46.72817921 389.22811928 -13.43457031 390.37255859 C28.47491776 391.33579474 66.4268288 384.56998642 99 356.25 C99.62390625 355.71117187 100.2478125 355.17234375 100.890625 354.6171875 C111.11282153 345.11150007 119.5932927 331.4701219 124 318.25 C157.66 318.25 191.32 318.25 226 318.25 C223.64375957 332.38744257 223.64375957 332.38744257 221.375 339 C221.11630127 339.76022461 220.85760254 340.52044922 220.59106445 341.30371094 C207.16471874 379.38915906 177.95104527 408.29143487 143 427.25 C142.36497559 427.59627441 141.72995117 427.94254883 141.07568359 428.29931641 C111.25199538 444.21614818 76.32964319 451.13694849 43 454.25 C42.0095166 454.3442627 41.0190332 454.43852539 39.99853516 454.53564453 C28.76299649 455.47403779 17.51820647 455.4925096 6.25 455.5 C5.19530518 455.50100708 4.14061035 455.50201416 3.05395508 455.50305176 C-65.07483624 455.45930357 -136.88487447 442.67068481 -188 394.25 C-189.41732422 392.92935547 -189.41732422 392.92935547 -190.86328125 391.58203125 C-216.83308897 366.88949675 -231.65452445 333.59528809 -240 299.25 C-240.20850586 298.41500977 -240.41701172 297.58001953 -240.63183594 296.71972656 C-256.12967234 233.34324548 -249.50504377 154.70979905 -215.76464844 98.26635742 C-212.14955199 92.35516769 -208.26245583 86.71577338 -204 81.25 C-203.36191406 80.40824219 -202.72382813 79.56648438 -202.06640625 78.69921875 C-164.77981231 31.12180682 -106.4168398 9.65686631 -48.0625 2.5625 C-32.01690501 0.63307347 -16.14648071 0.00969433 0 0 Z M-110.10009766 106.89624023 C-133.88619901 130.15654356 -141.99865449 156.23519937 -145 189.25 C-52.93 189.25 39.14 189.25 134 189.25 C134 155.51570995 122.82599375 126.22624184 99.3125 102.0625 C44.55873672 47.67425911 -56.48050273 55.91295254 -110.10009766 106.89624023 Z " fill="#E43137" transform="translate(247,167.75)"/>
<path d="M0 0 C37.95 0 75.9 0 115 0 C163.73429648 97.46859296 212.46859296 194.93718592 278 326 C285.24440858 311.53472763 292.48641428 297.0682551 299.72569752 282.60041714 C303.08840855 275.8801128 306.45185332 269.16017774 309.81713867 262.44116211 C312.75635682 256.57281298 315.69408321 250.70371971 318.63014811 244.83379227 C320.17932817 241.7367159 321.72916572 238.63997325 323.28080177 235.54412651 C328.9440339 224.2417034 334.586719 212.93584133 339.99633789 201.50952148 C348.40579382 183.78330939 357.28540599 166.28350772 366.06373644 148.73820162 C368.66694045 143.53435478 371.26816598 138.32951903 373.86972046 133.12484741 C378.22372394 124.41503311 382.57939274 115.70605317 386.93603516 106.99755859 C391.97546576 96.9241743 397.01197305 86.84933237 402.04702246 76.77375758 C406.3846078 68.09405866 410.72374155 59.41513517 415.06418741 50.73686635 C417.65097762 45.56484557 420.23722509 40.39255531 422.82207108 35.21956253 C425.24170658 30.37741581 427.66327709 25.53624184 430.08638382 20.6958313 C430.97680411 18.91631835 431.86653584 17.13646069 432.75554657 15.35624313 C433.96357942 12.93746702 435.1740409 10.51992235 436.38516235 8.10269165 C436.74049533 7.38979497 437.09582832 6.67689828 437.46192896 5.94239867 C439.88584759 1.11415241 439.88584759 1.11415241 441 0 C442.3534059 -0.09531163 443.71173984 -0.1218872 445.0684967 -0.12025452 C445.94494339 -0.12162918 446.82139008 -0.12300385 447.72439575 -0.12442017 C449.17771805 -0.11902725 449.17771805 -0.11902725 450.66040039 -0.11352539 C451.67491776 -0.11367142 452.68943512 -0.11381744 453.73469543 -0.1139679 C457.10570373 -0.11326829 460.47665754 -0.10547368 463.84765625 -0.09765625 C466.17793243 -0.09579224 468.508209 -0.09436826 470.83848572 -0.09336853 C476.98537265 -0.08954202 483.13223613 -0.0797106 489.27911377 -0.06866455 C495.54609866 -0.05845329 501.81308732 -0.05387152 508.08007812 -0.04882812 C520.38672908 -0.03808845 532.69336259 -0.02101044 545 0 C543.78189935 3.72248132 542.509685 7.2297954 540.75 10.73046875 C540.31220215 11.60477539 539.8744043 12.47908203 539.42333984 13.37988281 C538.9536377 14.30639648 538.48393555 15.23291016 538 16.1875 C537.50580566 17.16944336 537.01161133 18.15138672 536.50244141 19.16308594 C533.14534873 25.80851804 529.69204157 32.39788741 526.19335938 38.96948242 C521.81956006 47.24133743 517.66913111 55.62383762 513.5 64 C508.70643551 73.63056465 503.88743912 83.23434735 498.81640625 92.72265625 C494.73332951 100.40925373 490.87716625 108.20826073 487 116 C482.76898678 124.50284711 478.53954378 132.9980923 474.0625 141.375 C469.36692822 150.16289301 464.93941753 159.08099678 460.5 168 C455.72971328 177.58370745 450.9349817 187.14089387 445.88671875 196.58203125 C441.60506982 204.64413274 437.56737428 212.82848223 433.5 221 C428.72970912 230.58370534 423.93498175 240.14089377 418.88671875 249.58203125 C414.60506982 257.64413274 410.56737428 265.82848223 406.5 274 C401.72970912 283.58370534 396.93498175 293.14089377 391.88671875 302.58203125 C387.20764381 311.39246333 382.81161499 320.3468063 378.36672974 329.27679443 C373.94946338 338.14771379 369.48778479 346.98213264 364.81640625 355.72265625 C360.73332951 363.40925373 356.87716625 371.20826073 353 379 C348.76898678 387.50284711 344.53954378 395.9980923 340.0625 404.375 C335.36692822 413.16289301 330.93941753 422.08099678 326.5 431 C321.72971328 440.58370745 316.9349817 450.14089387 311.88671875 459.58203125 C307.60506982 467.64413274 303.56737428 475.82848223 299.5 484 C294.72970912 493.58370534 289.93498175 503.14089377 284.88671875 512.58203125 C280.21151683 521.38517065 275.8188561 530.33196212 271.37780762 539.25463867 C266.39770563 549.25634804 261.34704362 559.2089379 256.078125 569.0625 C253.64602961 573.67068074 251.33025397 578.33949207 249 583 C212.7 583 176.4 583 139 583 C149.18070652 561.50739734 149.18070652 561.50739734 153.5625 553.75 C158.55521162 544.75524621 163.30903288 535.65409912 168 526.5 C172.53938628 517.64685153 177.12339487 508.83306275 181.9375 500.125 C187.36598777 490.30273622 192.49119319 480.33495123 197.60241699 470.34539795 C202.60506019 460.57221592 207.6943107 450.86216343 213.0703125 441.28710938 C213.94359109 439.71805838 214.79576806 438.13706453 215.62573242 436.54467773 C217 434 217 434 218.9152832 431.03540039 C221.71417616 426.23044495 223.48337293 422.9735599 222.12231445 417.41650391 C220.39549246 413.37358205 218.108037 409.67603681 215.8125 405.9375 C215.0000462 404.53096397 214.1928255 403.12139335 213.390625 401.70898438 C211.74951512 398.83131273 210.08542181 395.96915156 208.40087891 393.11669922 C204.91135959 387.1783762 201.71627469 381.0899071 198.5 375 C197.27218482 372.70760896 196.04300181 370.41595004 194.8125 368.125 C190.32458242 359.74755385 185.87044605 351.352239 181.41598511 342.95697021 C176.48672021 333.66777378 171.53608481 324.39056486 166.5625 315.125 C160.61526524 304.04382754 154.72288091 292.93439729 148.84552002 281.81604004 C143.13629601 271.01725871 137.39044902 260.23916627 131.61328125 249.4765625 C126.5203228 239.98415484 121.46467016 230.4722818 116.41571045 220.9564209 C111.4865349 211.6674089 106.53598793 202.39038437 101.5625 193.125 C95.61526524 182.04382754 89.72288091 170.93439729 83.84552002 159.81604004 C78.73726228 150.15396369 73.60561796 140.5052051 68.4375 130.875 C63.33545874 121.36367677 58.23943697 111.8492275 53.16653442 102.32232666 C52.44825254 100.97407641 51.72927493 99.6261965 51.00949097 98.27874756 C46.82424428 90.44238727 42.7589194 82.55926759 38.80818176 74.60202026 C36.24579693 69.45484497 33.55806106 64.39277304 30.75 59.375 C29.80429943 57.66948596 28.85900161 55.96374854 27.9140625 54.2578125 C27.19524902 52.96278809 27.19524902 52.96278809 26.46191406 51.64160156 C22.99176905 45.37123265 19.5724035 39.07300519 16.1484375 32.77734375 C13.8963279 28.63699312 11.62730391 24.5063118 9.3515625 20.37890625 C8.15093963 18.19016013 6.95041652 16.00135929 5.75 13.8125 C5.17652832 12.77834961 4.60305664 11.74419922 4.01220703 10.67871094 C3.22499268 9.23866699 3.22499268 9.23866699 2.421875 7.76953125 C1.71949707 6.49493042 1.71949707 6.49493042 1.00292969 5.19458008 C0 3 0 3 0 0 Z " fill="#86B816" transform="translate(1375,185)"/>
</svg>
